# xmcd
#
# Track frame offsets: 
#        182
#        17370
#        38022
#        61505
#
# Disc length: 1052 seconds
#
# Revision: 3
# Processed by: cddbd v1.5.2PL0 Copyright (c) Steve Scherf et al.
# Submitted via: ExactAudioCopy v0.99pb3
#
DISCID=1d041a04
DTITLE=Tony! Toni! Toné! - Lets Get Down
DYEAR=1996
DGENRE=R&B
TTITLE0=Lets Get Down
TTITLE1=It's A Beautiful Thing
TTITLE2='Till Last Summer
TTITLE3=Lets Get Down (Feat. DJ Quick)
EXTD=\nURL: http://www.polygram-us.com/polygram/mercury/artists/toni_t
EXTD=ony_tone/ttt_homepage.html "Tony Toni Tone"
EXTT0=
EXTT1=
EXTT2=
EXTT3=
PLAYORDER=
